<svg width="196" height="60" viewBox="0 0 196 60" fill="none" xmlns="http://www.w3.org/2000/svg">
<path d="M76.9883 37.2414C76.9883 36.851 76.9099 36.5387 76.7139 36.3045C76.5179 36.0703 76.2827 35.8751 75.9691 35.7189C75.6555 35.5628 75.3027 35.4457 74.8715 35.3676C74.4795 35.2895 74.0483 35.1724 73.6171 35.0943C73.0291 34.9772 72.4803 34.8211 71.9315 34.6259C71.3827 34.4697 70.9123 34.1965 70.5203 33.8842C70.1283 33.5719 69.7755 33.1815 69.5403 32.7131C69.3051 32.2446 69.1875 31.62 69.1875 30.9174C69.1875 30.1366 69.3443 29.4339 69.6187 28.8484C69.8931 28.2628 70.2851 27.7944 70.7555 27.404C71.2259 27.0136 71.7747 26.7404 72.4411 26.5452C73.0683 26.35 73.8131 26.2719 74.5971 26.2719C75.3811 26.2719 76.2043 26.35 77.0275 26.5062C77.8507 26.6623 78.5171 26.8575 79.1051 27.0917V29.4339C78.3211 29.1216 77.5763 28.8874 76.8707 28.7703C76.1651 28.6532 75.4987 28.5751 74.8715 28.5751C73.9699 28.5751 73.2643 28.7313 72.7939 29.0826C72.2843 29.3949 72.0491 29.9024 72.0491 30.566C72.0491 30.9564 72.1275 31.2687 72.2843 31.5029C72.4411 31.7371 72.6763 31.9714 72.9507 32.1275C73.2251 32.2837 73.5387 32.4008 73.8915 32.5179C74.2443 32.596 74.6363 32.7131 75.0283 32.7911C75.6555 32.9082 76.2827 33.0644 76.8707 33.2596C77.4587 33.4157 77.9683 33.689 78.3995 34.0013C78.8307 34.3136 79.2227 34.704 79.4579 35.2114C79.7323 35.7189 79.8499 36.3435 79.8499 37.1243C79.8499 37.944 79.6931 38.6077 79.4187 39.2323C79.1051 39.8178 78.7131 40.3253 78.1251 40.6766C77.5763 41.067 76.9099 41.3403 76.1259 41.5354C75.3419 41.7306 74.4795 41.8087 73.5387 41.8087C72.7155 41.8087 71.9315 41.7306 71.1475 41.5745C70.3635 41.4183 69.6971 41.1841 69.1875 40.9109V38.6077C69.9323 38.92 70.6379 39.1542 71.3435 39.3103C72.0491 39.4665 72.7547 39.5446 73.5387 39.5446C73.9699 39.5446 74.4011 39.5055 74.8323 39.4274C75.2635 39.3494 75.6163 39.2323 75.9691 39.0761C76.2827 38.92 76.5571 38.6857 76.7531 38.3734C76.9099 38.0221 76.9883 37.6708 76.9883 37.2414Z" fill="black"/>
<path d="M87.2188 41.5354V26.5452H89.9628V33.3767H90.002L95.7252 26.5452H99.1355L92.8635 33.9622L99.6452 41.4964H96.1172L90.0411 34.743H90.002V41.4964H87.2188V41.5354Z" fill="black"/>
<path d="M111.642 33.0254L115.64 26.5452H118.698L113.014 35.4847V41.4964H110.27V35.4847L104.547 26.5452H107.604L111.642 33.0254Z" fill="black"/>
<path d="M127.83 26.5452V39.2322H134.847V41.5354H125.047V26.5452H127.83Z" fill="black"/>
<path d="M141.785 41.5354V26.5452H144.529V41.4964H141.785V41.5354Z" fill="black"/>
<path d="M160.289 33.5328C161.387 35.0553 162.249 36.4216 162.916 37.5927H162.994C162.916 35.6408 162.876 34.2355 162.876 33.3376V26.5452H165.62V41.4964H162.72L157.82 34.5868C156.957 33.3767 156.056 32.0104 155.154 30.4489H155.076C155.154 32.2836 155.193 33.689 155.193 34.7039V41.4964H152.449V26.5452H155.35L160.289 33.5328Z" fill="black"/>
<path d="M176.322 39.2322H183.731V41.5354H173.578V26.5452H183.3V28.8484H176.322V32.7131H182.32V35.0162H176.322V39.2322Z" fill="black"/>
<path d="M4.54688 23.188L36.6125 5.62134L57.0749 13.8972V15.8491L36.6125 8.0026L4.54688 24.0078V23.188ZM36.6125 13.2726L57.0749 20.1041V18.2694L36.6125 11.0085L4.54688 26.311V27.0527L36.6125 13.2726ZM36.6125 17.8009L57.0749 23.9688V22.134L36.6125 15.5758L4.54688 29.2778V29.9414L36.6125 17.8009ZM18.1885 28.5361V27.2479L4.54688 32.3227V32.9863L18.1885 28.5361ZM36.6125 26.8575L57.0749 31.581V29.9024L36.6125 24.7886L4.54688 35.4066V35.797L36.6125 26.8575ZM36.6125 31.3858L57.0749 35.5238V33.8842L36.6125 29.473L4.54688 38.4125V38.7638L36.6125 31.3858ZM36.6125 35.9922L57.0749 39.2713V37.7098L36.6125 34.1184L4.54688 41.4184V41.8478L36.6125 35.9922ZM36.6125 40.2472L57.0749 42.8627V41.2622L36.6125 38.2954V40.2472ZM36.6125 45.205L57.0749 46.8445V45.3221L36.6125 43.4092L4.54688 47.8985V48.2889L36.6125 45.205ZM36.6125 49.6161L57.0749 50.3969V48.8744L36.6125 47.6253L4.54688 50.9044V51.2947L36.6125 49.6161ZM36.6125 54.1835L57.0749 54.1054V52.583L36.6125 52.3097L4.54688 53.9493V54.3396L36.6125 54.1835Z" fill="url(#paint0_linear_92_265)"/>
<defs>
<linearGradient id="paint0_linear_92_265" x1="4.54833" y1="29.9963" x2="57.0729" y2="29.9963" gradientUnits="userSpaceOnUse">
<stop stop-color="#00436F"/>
<stop offset="0.4994" stop-color="#004E82"/>
<stop offset="0.6808" stop-color="#004C7F"/>
<stop offset="0.8228" stop-color="#004675"/>
<stop offset="0.9509" stop-color="#003C65"/>
<stop offset="1" stop-color="#00375C"/>
</linearGradient>
</defs>
</svg>
